<svg version="1.1" id="Layer_1" xmlns="http://www.w3.org/2000/svg" xmlns:xlink="http://www.w3.org/1999/xlink" x="0px" y="0px"
	 viewBox="0 0 283.5 96.8" style="enable-background:new 0 0 283.5 96.8;" xml:space="preserve">
<style type="text/css">
	.st0{fill:#231F20;}
	.st1{fill:#FFFFFF;}
	.st2{fill:none;stroke:#231F20;stroke-width:0.216;stroke-miterlimit:22.9256;}
	.st3{fill-rule:evenodd;clip-rule:evenodd;fill:#FFFFFF;}
	.st4{fill:none;stroke:#231F20;stroke-width:0.4252;stroke-miterlimit:22.9256;}
	.st5{font-family:'LucidaSansUnicode';}
	.st6{font-size:9.7437px;}
</style>
<rect x="3.6" y="62.5" class="st0" width="276.3" height="9.5"/>
<polygon class="st0" points="3.6,62.5 3.6,62.6 279.8,62.6 279.8,71.9 3.7,71.9 3.7,62.5 3.6,62.5 3.6,62.6 3.6,62.5 3.5,62.5 
	3.5,72.1 280,72.1 280,62.4 3.5,62.4 3.5,62.5 "/>
<rect x="3.6" y="73.6" class="st0" width="276.3" height="1.7"/>
<path class="st0" d="M86.8,47.7v-7h15.9V55c-3.1,2.1-5.8,3.5-8.1,4.3c-2.3,0.8-5.1,1.1-8.3,1.1c-4,0-7.2-0.7-9.7-2
	c-2.5-1.4-4.4-3.4-5.8-6.1c-1.4-2.7-2.1-5.8-2.1-9.3c0-3.7,0.8-6.9,2.3-9.6c1.5-2.7,3.7-4.8,6.6-6.2c2.3-1.1,5.3-1.6,9.1-1.6
	c3.7,0,6.4,0.3,8.3,1c1.8,0.7,3.3,1.7,4.6,3.1c1.2,1.4,2.1,3.2,2.7,5.4l-10,1.8c-0.4-1.3-1.1-2.2-2.1-2.9c-1-0.7-2.2-1-3.7-1
	c-2.3,0-4.1,0.8-5.4,2.4c-1.3,1.6-2,4.1-2,7.5c0,3.6,0.7,6.2,2,7.8c1.4,1.6,3.3,2.3,5.7,2.3c1.2,0,2.3-0.2,3.3-0.5
	c1-0.3,2.3-0.9,3.6-1.7v-3.2H86.8z"/>
<path class="st0" d="M108.3,35.4h8.7v4c0.8-1.7,1.7-2.9,2.6-3.6c0.9-0.6,2-1,3.3-1c1.4,0,2.9,0.4,4.5,1.3l-2.9,6.6
	c-1.1-0.5-2-0.7-2.6-0.7c-1.2,0-2.2,0.5-2.8,1.5c-1,1.4-1.4,4.1-1.4,8v8.2h-9.3V35.4z"/>
<path class="st0" d="M146.2,48.2L146.2,48.2c-1.3,0.5-2.6,0.9-4,1.2c-1.9,0.5-3.1,1-3.6,1.5c-0.5,0.5-0.8,1.1-0.8,1.7
	c0,0.7,0.3,1.3,0.8,1.8c0.5,0.5,1.3,0.7,2.2,0.7c1,0,2-0.3,2.9-0.8c0.9-0.5,1.5-1.1,1.9-1.8c0.4-0.7,0.6-1.7,0.6-2.8V48.2z
	 M138.2,43.3l-8.9-0.9c0.3-1.6,0.8-2.8,1.4-3.7c0.6-0.9,1.5-1.7,2.7-2.3c0.9-0.5,2-0.8,3.5-1.1c1.5-0.3,3.1-0.4,4.8-0.4
	c2.8,0,5,0.2,6.7,0.5c1.7,0.3,3.1,1,4.2,2c0.8,0.7,1.4,1.7,1.9,2.9c0.5,1.3,0.7,2.5,0.7,3.6v10.8c0,1.1,0.1,2,0.2,2.7
	c0.1,0.6,0.5,1.5,0.9,2.5h-8.7c-0.3-0.6-0.6-1.1-0.7-1.4c-0.1-0.3-0.2-0.8-0.3-1.5c-1.2,1.2-2.4,2-3.6,2.5c-1.6,0.7-3.5,1-5.7,1
	c-2.9,0-5.1-0.7-6.6-2c-1.5-1.3-2.2-3-2.2-5c0-1.8,0.5-3.4,1.6-4.6c1.1-1.2,3.1-2.1,6-2.7c3.5-0.7,5.7-1.2,6.8-1.5
	c1-0.3,2.1-0.7,3.3-1.1c0-1.1-0.2-1.9-0.7-2.4c-0.5-0.5-1.3-0.7-2.5-0.7c-1.5,0-2.6,0.2-3.4,0.7C139,41.6,138.6,42.3,138.2,43.3z"/>
<path class="st0" d="M171.1,35.4h4.4v6.8h-4.4v17.5h-9.3V42.3h-3.5v-6.8h3.5v-1.1c0-1,0.1-2.1,0.3-3.3c0.2-1.2,0.6-2.2,1.2-2.9
	c0.6-0.8,1.4-1.4,2.5-1.8c1.1-0.5,2.6-0.7,4.6-0.7c1.6,0,4,0.2,7.1,0.6l-1,5.7c-1.1-0.2-2-0.3-2.7-0.3c-0.8,0-1.4,0.1-1.8,0.4
	c-0.4,0.3-0.6,0.7-0.8,1.3C171.2,33.6,171.1,34.4,171.1,35.4"/>
<path class="st0" d="M179.3,35.4L179.3,35.4h9.3v24.4h-9.3V35.4z M179.3,26.2h9.3v6.3h-9.3V26.2z"/>
<polygon class="st0" points="195.5,59.8 195.5,26.2 218.1,26.2 218.1,30.1 200,30.1 200,40.5 215.6,40.5 215.6,44.5 200,44.5 
	200,59.8 "/>
<rect x="223.2" y="26.2" class="st0" width="4.1" height="33.6"/>
<path class="st0" d="M236.7,45.3L236.7,45.3h13.5c-0.2-2.1-0.7-3.6-1.5-4.6c-1.3-1.6-3-2.4-5.1-2.4c-1.9,0-3.5,0.6-4.8,1.9
	C237.6,41.4,236.9,43.1,236.7,45.3 M250.2,51.9l4.2,0.5c-0.7,2.5-1.9,4.4-3.7,5.8c-1.8,1.4-4.1,2.1-6.9,2.1c-3.5,0-6.3-1.1-8.4-3.3
	c-2.1-2.2-3.1-5.3-3.1-9.2c0-4.1,1-7.3,3.1-9.5c2.1-2.3,4.8-3.4,8.2-3.4c3.2,0,5.9,1.1,7.9,3.3c2,2.2,3.1,5.3,3.1,9.4
	c0,0.2,0,0.6,0,1.1h-18.1c0.2,2.7,0.9,4.7,2.3,6.2c1.4,1.4,3,2.1,5.1,2.1c1.5,0,2.8-0.4,3.9-1.2C248.7,55,249.6,53.7,250.2,51.9z"/>
<path class="st0" d="M256.8,59.8l8.9-12.6l-8.2-11.7h5l3.8,5.7c0.7,1.1,1.3,2,1.7,2.7c0.7-1,1.3-1.9,1.9-2.7l4.1-5.8h5l-8.2,11.7
	l8.8,12.6h-5l-5-7.5l-1.2-1.8l-6.5,9.4H256.8z"/>
<path class="st0" d="M5.7,80.6L5.7,80.6h1.9c0.6,0,1.1-0.1,1.3-0.3c0.3-0.2,0.4-0.5,0.4-0.9c0-0.3-0.1-0.5-0.2-0.7
	c-0.2-0.2-0.4-0.3-0.6-0.4c-0.2,0-0.5-0.1-0.9-0.1H5.7V80.6z M4.7,83.9v-6.3h2.7c0.5,0,0.9,0,1.1,0.1c0.4,0.1,0.7,0.1,0.9,0.3
	c0.2,0.1,0.4,0.3,0.6,0.6c0.1,0.3,0.2,0.5,0.2,0.9c0,0.5-0.2,1-0.6,1.4c-0.4,0.4-1.1,0.6-2.1,0.6H5.7v2.6H4.7z"/>
<path class="st0" d="M19.5,83.9v-4.6h0.8V80c0.2-0.3,0.4-0.5,0.6-0.6c0.2-0.1,0.4-0.2,0.6-0.2c0.3,0,0.6,0.1,0.9,0.2l-0.3,0.7
	c-0.2-0.1-0.4-0.2-0.7-0.2c-0.2,0-0.4,0.1-0.5,0.2c-0.2,0.1-0.3,0.2-0.3,0.4c-0.1,0.3-0.1,0.6-0.1,0.9v2.4H19.5z"/>
<path class="st0" d="M31.8,81.2L31.8,81.2h3c0-0.4-0.2-0.7-0.3-0.9c-0.3-0.3-0.7-0.4-1.1-0.4c-0.4,0-0.8,0.1-1,0.4
	C31.9,80.4,31.8,80.8,31.8,81.2 M34.7,82.4l0.9,0.1c-0.1,0.5-0.4,0.8-0.8,1.1c-0.4,0.3-0.9,0.4-1.5,0.4c-0.8,0-1.4-0.2-1.8-0.6
	c-0.5-0.4-0.7-1-0.7-1.7c0-0.8,0.2-1.4,0.7-1.8c0.5-0.4,1.1-0.6,1.8-0.6c0.7,0,1.3,0.2,1.7,0.6c0.4,0.4,0.7,1,0.7,1.8
	c0,0,0,0.1,0,0.2h-3.9c0,0.5,0.2,0.9,0.5,1.2c0.3,0.3,0.7,0.4,1.1,0.4c0.3,0,0.6-0.1,0.8-0.2C34.4,83,34.6,82.7,34.7,82.4z"/>
<path class="st0" d="M45.7,81.6L45.7,81.6c0,0.6,0.1,1,0.4,1.3c0.3,0.3,0.6,0.4,1,0.4c0.4,0,0.7-0.1,1-0.4c0.3-0.3,0.4-0.7,0.4-1.4
	c0-0.6-0.1-1-0.4-1.3c-0.3-0.3-0.6-0.4-1-0.4c-0.4,0-0.7,0.2-1,0.5C45.8,80.6,45.7,81,45.7,81.6 M44.9,85.6v-6.3h0.8v0.6
	c0.2-0.2,0.4-0.4,0.7-0.5c0.2-0.1,0.5-0.2,0.9-0.2c0.4,0,0.8,0.1,1.2,0.3c0.3,0.2,0.6,0.5,0.8,0.8c0.2,0.4,0.3,0.8,0.3,1.2
	c0,0.5-0.1,0.9-0.3,1.3c-0.2,0.4-0.5,0.7-0.8,0.9C48,83.9,47.6,84,47.2,84c-0.3,0-0.6-0.1-0.8-0.2c-0.2-0.1-0.4-0.2-0.6-0.4v2.2
	H44.9z"/>
<path class="st0" d="M58.7,83.9v-4.6h0.8V80c0.2-0.3,0.4-0.5,0.6-0.6c0.2-0.1,0.4-0.2,0.6-0.2c0.3,0,0.6,0.1,0.9,0.2l-0.3,0.7
	C61,80.1,60.8,80,60.6,80c-0.2,0-0.4,0.1-0.5,0.2c-0.2,0.1-0.3,0.2-0.3,0.4c-0.1,0.3-0.1,0.6-0.1,0.9v2.4H58.7z"/>
<path class="st0" d="M70.9,81.2L70.9,81.2h3c0-0.4-0.2-0.7-0.3-0.9c-0.3-0.3-0.7-0.4-1.1-0.4c-0.4,0-0.8,0.1-1,0.4
	C71.1,80.4,70.9,80.8,70.9,81.2 M73.9,82.4l0.9,0.1c-0.1,0.5-0.4,0.8-0.8,1.1c-0.4,0.3-0.9,0.4-1.5,0.4c-0.8,0-1.4-0.2-1.8-0.6
	c-0.5-0.4-0.7-1-0.7-1.7c0-0.8,0.2-1.4,0.7-1.8c0.5-0.4,1.1-0.6,1.8-0.6c0.7,0,1.3,0.2,1.7,0.6c0.4,0.4,0.7,1,0.7,1.8
	c0,0,0,0.1,0,0.2h-3.9c0,0.5,0.2,0.9,0.5,1.2c0.3,0.3,0.7,0.4,1.1,0.4c0.3,0,0.6-0.1,0.8-0.2C73.5,83,73.7,82.7,73.9,82.4z"/>
<path class="st0" d="M84.1,83.9v-4.6h0.8V80c0.4-0.5,0.9-0.7,1.7-0.7c0.3,0,0.6,0,0.9,0.1c0.3,0.1,0.5,0.2,0.6,0.4
	c0.1,0.2,0.2,0.3,0.3,0.6c0,0.1,0,0.4,0,0.8v2.8h-0.9v-2.8c0-0.3,0-0.6-0.1-0.7c-0.1-0.2-0.2-0.3-0.4-0.4c-0.2-0.1-0.4-0.1-0.6-0.1
	c-0.4,0-0.7,0.1-1,0.3c-0.3,0.2-0.4,0.6-0.4,1.2v2.5H84.1z"/>
<path class="st0" d="M97.5,82.5l0.9-0.1c0,0.3,0.2,0.5,0.4,0.7c0.2,0.2,0.5,0.2,1,0.2c0.4,0,0.7-0.1,0.9-0.2
	c0.2-0.1,0.3-0.3,0.3-0.5c0-0.2-0.1-0.3-0.3-0.4c-0.1-0.1-0.4-0.2-0.9-0.3c-0.7-0.1-1.1-0.3-1.4-0.4c-0.3-0.1-0.4-0.2-0.6-0.4
	c-0.1-0.2-0.2-0.4-0.2-0.6c0-0.2,0.1-0.4,0.2-0.6c0.1-0.2,0.3-0.3,0.4-0.4c0.1-0.1,0.3-0.2,0.6-0.2c0.2-0.1,0.5-0.1,0.8-0.1
	c0.4,0,0.8,0.1,1.1,0.2c0.3,0.1,0.5,0.2,0.7,0.4c0.1,0.2,0.3,0.4,0.3,0.7l-0.9,0.1c0-0.2-0.2-0.4-0.3-0.6c-0.2-0.1-0.5-0.2-0.8-0.2
	c-0.4,0-0.7,0.1-0.9,0.2c-0.2,0.1-0.3,0.3-0.3,0.4c0,0.1,0,0.2,0.1,0.3c0.1,0.1,0.2,0.2,0.3,0.2c0.1,0,0.4,0.1,0.8,0.2
	c0.6,0.1,1.1,0.3,1.3,0.4c0.2,0.1,0.4,0.2,0.6,0.4c0.1,0.2,0.2,0.4,0.2,0.7c0,0.3-0.1,0.5-0.3,0.7c-0.2,0.2-0.4,0.4-0.8,0.5
	c-0.3,0.1-0.7,0.2-1.1,0.2c-0.7,0-1.2-0.1-1.6-0.4C97.8,83.4,97.6,83,97.5,82.5"/>
<path class="st0" d="M114.5,81.6L114.5,81.6c-0.3,0.1-0.8,0.2-1.5,0.3c-0.4,0-0.6,0.1-0.8,0.2c-0.2,0.1-0.3,0.1-0.4,0.3
	c-0.1,0.1-0.1,0.2-0.1,0.4c0,0.2,0.1,0.4,0.3,0.5c0.2,0.1,0.4,0.2,0.8,0.2c0.3,0,0.7-0.1,0.9-0.2c0.3-0.1,0.5-0.3,0.6-0.5
	c0.1-0.2,0.1-0.4,0.1-0.8L114.5,81.6z M114.6,83.3c-0.3,0.2-0.7,0.4-1,0.5c-0.3,0.1-0.6,0.2-1,0.2c-0.6,0-1-0.1-1.3-0.4
	c-0.3-0.2-0.5-0.6-0.5-0.9c0-0.2,0.1-0.4,0.2-0.6c0.1-0.2,0.3-0.3,0.5-0.4c0.2-0.1,0.4-0.2,0.6-0.3c0.2,0,0.4-0.1,0.8-0.1
	c0.7-0.1,1.3-0.2,1.6-0.3c0-0.1,0-0.2,0-0.2c0-0.3-0.1-0.5-0.3-0.7c-0.2-0.2-0.6-0.3-1-0.3c-0.4,0-0.7,0.1-0.9,0.2
	c-0.2,0.1-0.4,0.4-0.4,0.7l-0.9-0.1c0.1-0.3,0.2-0.6,0.4-0.8c0.2-0.2,0.4-0.4,0.8-0.5c0.3-0.1,0.7-0.2,1.2-0.2c0.4,0,0.8,0,1.1,0.1
	c0.3,0.1,0.5,0.2,0.6,0.3c0.1,0.1,0.2,0.3,0.3,0.5c0,0.1,0,0.4,0,0.7v1c0,0.7,0,1.2,0.1,1.4c0,0.2,0.1,0.4,0.2,0.5h-0.9
	C114.6,83.7,114.6,83.5,114.6,83.3z"/>
<polygon class="st0" points="135,83.9 135,77.6 140,77.6 140,78.3 136,78.3 136,80.3 139.4,80.3 139.4,81 136,81 136,83.9 "/>
<rect x="149.2" y="77.6" class="st0" width="0.9" height="6.3"/>
<path class="st0" d="M160.3,81.2L160.3,81.2h3c0-0.4-0.2-0.7-0.3-0.9c-0.3-0.3-0.7-0.4-1.1-0.4c-0.4,0-0.8,0.1-1,0.4
	C160.5,80.4,160.3,80.8,160.3,81.2 M163.3,82.4l0.9,0.1c-0.1,0.5-0.4,0.8-0.8,1.1c-0.4,0.3-0.9,0.4-1.5,0.4c-0.8,0-1.4-0.2-1.8-0.6
	c-0.5-0.4-0.7-1-0.7-1.7c0-0.8,0.2-1.4,0.7-1.8c0.5-0.4,1.1-0.6,1.8-0.6c0.7,0,1.3,0.2,1.7,0.6c0.5,0.4,0.7,1,0.7,1.8
	c0,0,0,0.1,0,0.2h-3.9c0,0.5,0.2,0.9,0.5,1.2c0.3,0.3,0.7,0.4,1.1,0.4c0.3,0,0.6-0.1,0.8-0.2C162.9,83,163.1,82.7,163.3,82.4z"/>
<path class="st0" d="M172.8,83.9l1.9-2.4l-1.8-2.2h1.1l0.8,1.1c0.2,0.2,0.3,0.4,0.4,0.5c0.1-0.2,0.3-0.3,0.4-0.5l0.9-1.1h1.1
	l-1.8,2.2l1.9,2.4h-1.1l-1.1-1.4l-0.3-0.3l-1.4,1.8H172.8z"/>
<path class="st0" d="M187.3,81.6L187.3,81.6c0,0.6,0.1,1,0.4,1.3c0.3,0.3,0.7,0.4,1.1,0.4c0.4,0,0.8-0.1,1.1-0.4s0.4-0.7,0.4-1.3
	c0-0.6-0.1-1-0.4-1.3c-0.3-0.3-0.7-0.4-1.1-0.4c-0.4,0-0.8,0.1-1.1,0.4C187.4,80.6,187.3,81,187.3,81.6 M186.4,81.6
	c0-0.8,0.3-1.5,0.8-1.9c0.5-0.3,1-0.5,1.7-0.5c0.7,0,1.3,0.2,1.8,0.6c0.5,0.4,0.7,1,0.7,1.7c0,0.6-0.1,1-0.3,1.4
	c-0.2,0.3-0.5,0.6-0.9,0.8c-0.4,0.2-0.8,0.3-1.3,0.3c-0.7,0-1.3-0.2-1.8-0.6C186.6,83,186.4,82.4,186.4,81.6z"/>
<path class="st0" d="M201.1,81.5L201.1,81.5c0,0.6,0.1,1,0.4,1.3c0.3,0.3,0.6,0.4,1,0.4c0.4,0,0.8-0.1,1-0.4
	c0.3-0.3,0.4-0.7,0.4-1.3c0-0.6-0.1-1-0.4-1.3c-0.3-0.3-0.6-0.4-1-0.4c-0.4,0-0.7,0.1-1,0.4C201.2,80.6,201.1,81,201.1,81.5
	 M200.3,84.2l0.9,0.1c0,0.2,0.1,0.4,0.3,0.5c0.2,0.1,0.5,0.2,0.9,0.2c0.4,0,0.7-0.1,1-0.2c0.2-0.1,0.4-0.3,0.5-0.6
	c0-0.2,0.1-0.5,0.1-1c-0.4,0.4-0.9,0.6-1.5,0.6c-0.7,0-1.3-0.2-1.7-0.7c-0.4-0.5-0.6-1-0.6-1.6c0-0.4,0.1-0.8,0.3-1.2
	c0.2-0.4,0.5-0.7,0.8-0.9c0.3-0.2,0.8-0.3,1.2-0.3c0.6,0,1.1,0.2,1.5,0.7v-0.6h0.8v3.9c0,0.7-0.1,1.2-0.2,1.5
	c-0.2,0.3-0.4,0.5-0.8,0.7c-0.4,0.2-0.8,0.3-1.3,0.3c-0.6,0-1.1-0.1-1.5-0.4C200.5,85.1,200.3,84.7,200.3,84.2z"/>
<path class="st0" d="M214.3,83.9v-4.6h0.8V80c0.2-0.3,0.4-0.5,0.6-0.6c0.2-0.1,0.4-0.2,0.6-0.2c0.3,0,0.6,0.1,0.9,0.2l-0.3,0.7
	c-0.2-0.1-0.4-0.2-0.7-0.2c-0.2,0-0.4,0.1-0.5,0.2c-0.2,0.1-0.3,0.2-0.3,0.4c-0.1,0.3-0.1,0.6-0.1,0.9v2.4H214.3z"/>
<path class="st0" d="M227.3,78.7L227.3,78.7l0.7-1.2h1.2l-1.1,1.2H227.3z M229.2,81.6L229.2,81.6c-0.3,0.1-0.8,0.2-1.5,0.3
	c-0.4,0-0.6,0.1-0.8,0.2c-0.2,0.1-0.3,0.1-0.4,0.3c-0.1,0.1-0.1,0.2-0.1,0.4c0,0.2,0.1,0.4,0.3,0.5c0.2,0.1,0.5,0.2,0.8,0.2
	c0.3,0,0.7-0.1,0.9-0.2c0.3-0.1,0.5-0.3,0.6-0.5c0.1-0.2,0.1-0.4,0.1-0.8L229.2,81.6z M229.3,83.3c-0.3,0.2-0.6,0.4-1,0.5
	c-0.3,0.1-0.6,0.2-1,0.2c-0.6,0-1-0.1-1.3-0.4c-0.3-0.2-0.5-0.6-0.5-0.9c0-0.2,0.1-0.4,0.2-0.6c0.1-0.2,0.3-0.3,0.5-0.4
	c0.2-0.1,0.4-0.2,0.6-0.3c0.2,0,0.4-0.1,0.8-0.1c0.7-0.1,1.3-0.2,1.6-0.3c0-0.1,0-0.2,0-0.2c0-0.3-0.1-0.5-0.3-0.7
	c-0.2-0.2-0.6-0.3-1-0.3c-0.4,0-0.7,0.1-0.9,0.2c-0.2,0.1-0.3,0.4-0.4,0.7l-0.9-0.1c0.1-0.3,0.2-0.6,0.4-0.8
	c0.2-0.2,0.4-0.4,0.8-0.5c0.3-0.1,0.7-0.2,1.2-0.2s0.8,0,1.1,0.1c0.3,0.1,0.5,0.2,0.6,0.3c0.1,0.1,0.2,0.3,0.3,0.5
	c0,0.1,0,0.4,0,0.7v1c0,0.7,0,1.2,0.1,1.4c0,0.2,0.1,0.4,0.2,0.5h-0.9C229.4,83.7,229.3,83.5,229.3,83.3z"/>
<path class="st0" d="M239.9,83.9v-4h-0.8v-0.6h0.8v-0.5c0-0.3,0-0.5,0.1-0.7c0.1-0.2,0.2-0.4,0.5-0.5c0.2-0.1,0.5-0.2,0.9-0.2
	c0.3,0,0.5,0,0.8,0.1l-0.1,0.7c-0.2,0-0.4,0-0.5,0c-0.3,0-0.5,0.1-0.6,0.1c-0.1,0.1-0.2,0.3-0.2,0.6v0.4h1v0.6h-1v4H239.9z"/>
<path class="st0" d="M250.6,83.9L250.6,83.9v-4.6h0.9v4.6H250.6z M250.6,78.5v-0.9h0.9v0.9H250.6z"/>
<path class="st0" d="M264.5,82.2l0.9,0.1c-0.1,0.5-0.3,0.9-0.7,1.2c-0.4,0.3-0.9,0.4-1.5,0.4c-0.7,0-1.3-0.2-1.7-0.6
	c-0.4-0.4-0.7-1-0.7-1.8c0-0.5,0.1-0.9,0.3-1.3c0.2-0.4,0.5-0.6,0.9-0.8c0.4-0.2,0.8-0.3,1.3-0.3c0.6,0,1,0.1,1.4,0.4
	c0.4,0.3,0.6,0.6,0.7,1.1l-0.9,0.1c-0.1-0.3-0.2-0.5-0.4-0.7c-0.2-0.2-0.5-0.2-0.8-0.2c-0.5,0-0.8,0.1-1.1,0.4
	c-0.3,0.3-0.4,0.7-0.4,1.3c0,0.6,0.1,1.1,0.4,1.3c0.3,0.3,0.6,0.4,1.1,0.4c0.3,0,0.6-0.1,0.9-0.3C264.3,82.9,264.4,82.6,264.5,82.2"
	/>
<path class="st0" d="M277.7,81.6L277.7,81.6c-0.3,0.1-0.8,0.2-1.5,0.3c-0.4,0-0.6,0.1-0.8,0.2c-0.2,0.1-0.3,0.1-0.4,0.3
	c-0.1,0.1-0.1,0.2-0.1,0.4c0,0.2,0.1,0.4,0.3,0.5c0.2,0.1,0.4,0.2,0.8,0.2c0.3,0,0.7-0.1,0.9-0.2c0.3-0.1,0.5-0.3,0.6-0.5
	c0.1-0.2,0.1-0.4,0.1-0.8L277.7,81.6z M277.7,83.3c-0.3,0.2-0.7,0.4-1,0.5c-0.3,0.1-0.6,0.2-1,0.2c-0.6,0-1-0.1-1.3-0.4
	c-0.3-0.2-0.5-0.6-0.5-0.9c0-0.2,0.1-0.4,0.2-0.6c0.1-0.2,0.3-0.3,0.5-0.4c0.2-0.1,0.4-0.2,0.6-0.3c0.2,0,0.4-0.1,0.8-0.1
	c0.7-0.1,1.3-0.2,1.6-0.3c0-0.1,0-0.2,0-0.2c0-0.3-0.1-0.5-0.3-0.7c-0.2-0.2-0.6-0.3-1-0.3c-0.4,0-0.7,0.1-0.9,0.2
	c-0.2,0.1-0.3,0.4-0.4,0.7l-0.9-0.1c0.1-0.3,0.2-0.6,0.4-0.8c0.2-0.2,0.4-0.4,0.8-0.5c0.3-0.1,0.7-0.2,1.2-0.2c0.5,0,0.8,0,1.1,0.1
	c0.3,0.1,0.5,0.2,0.6,0.3c0.1,0.1,0.2,0.3,0.3,0.5c0,0.1,0,0.4,0,0.7v1c0,0.7,0,1.2,0.1,1.4c0,0.2,0.1,0.4,0.2,0.5h-0.9
	C277.8,83.7,277.8,83.5,277.7,83.3z"/>
<polygon class="st1" points="39.2,8.4 7.5,65.2 67.5,65.2 "/>
<polygon class="st0" points="39.2,8.4 38.9,8.3 7,65.5 68,65.5 39.2,7.8 38.9,8.3 39.2,8.4 38.9,8.6 67.1,64.9 8.1,64.9 39.4,8.6 
	39.2,8.4 38.9,8.6 "/>
<polygon class="st2" points="39.2,8.4 38.9,8.3 7,65.5 68,65.5 39.2,7.8 38.9,8.3 39.2,8.4 38.9,8.6 67.1,64.9 8.1,64.9 39.4,8.6 
	39.2,8.4 38.9,8.6 "/>
<polygon class="st0" points="35.2,3.9 3.6,60.6 63.6,60.6 "/>
<path class="st3" d="M26.3,42.9c-2,0-4.2,0-6.5,0c0-2.6,0-5.3,0-7.8c6,0,11.8,0,17.8,0c0,2.5-0.3,4.6-0.7,6.5
	c-0.5,1.6-1.2,3.2-1.9,4.8c-1.4,2.9-3.5,5.3-5.8,6.5c-2.5,1.4-4.8,1.9-7.4,1.9c-2,0-4.3-0.3-6.3-0.9C9.9,52,4.7,44.6,4.8,38.9
	c0.1-7.4,3.5-13.3,10.4-15.6c1.9-0.7,4-1,5.9-1c2.6,0,4.9,0.5,6.8,1.3c2.4,0.8,4.2,2.3,5.8,3.9c-2.3,2.2-4.5,4.3-6.9,6.5
	c-1.2-1.6-3.2-2.6-5.1-2.6c-4.2,0-6.8,3.8-6.8,7.8c0,3.4,3.5,6.5,6.8,6.5c1,0,1.9-0.5,3-1C25.5,44.3,26.2,43.4,26.3,42.9z"/>
<path class="st4" d="M26.3,42.9c-2,0-4.2,0-6.5,0c0-2.6,0-5.3,0-7.8c6,0,11.8,0,17.8,0c0,2.5-0.3,4.6-0.7,6.5
	c-0.5,1.6-1.2,3.2-1.9,4.8c-1.4,2.9-3.5,5.3-5.8,6.5c-2.5,1.4-4.8,1.9-7.4,1.9c-2,0-4.3-0.3-6.3-0.9C9.9,52,4.7,44.6,4.8,38.9
	c0.1-7.4,3.5-13.3,10.4-15.6c1.9-0.7,4-1,5.9-1c2.6,0,4.9,0.5,6.8,1.3c2.4,0.8,4.2,2.3,5.8,3.9c-2.3,2.2-4.5,4.3-6.9,6.5
	c-1.2-1.6-3.2-2.6-5.1-2.6c-4.2,0-6.8,3.8-6.8,7.8c0,3.4,3.5,6.5,6.8,6.5c1,0,1.9-0.5,3-1C25.5,44.3,26.2,43.4,26.3,42.9z"/>
<path class="st3" d="M38.2,64.3L36.5,65l-0.9-4l-0.8,0.5L33.9,63L32,64c-0.1,0.1-0.2,0.1-0.3,0.1c-0.1,0-0.2,0-0.3,0
	c-0.1-0.1-0.1-0.9-0.2-2.2c-0.3-7.2-1.2-14.2-2.6-21l-3.1-0.3l0-2.4l7.9-6.2c0.3-0.9,1.2-2.2,2.7-3.8c1.5-1.6,2.6-2.6,3.4-3.1
	c0.8-0.4,1.3-0.7,1.8-0.9c0.4-0.1,0.7-0.1,1,0l0.7,0.5c1.7-1.2,3.4-2.4,5-3.5c1.6-1.1,3.3-2.1,4.9-3c4.4-2.5,7.7-4.1,10-4.7
	c2.2-0.6,3.6-0.3,4,0.9c0.4,1.1,0.3,2.7-0.3,4.6c-0.6,1.9-1.7,4.1-3.2,6.6l-1.3,0.5c-0.1-0.5-0.1-1-0.2-1.3c0-0.4-0.1-0.7-0.2-0.9
	c-0.2-0.5-0.3-0.8-0.5-1.1c-0.2-0.2-0.3-0.5-0.6-0.7c-0.4,0.2-0.8,0.5-1.3,0.7c-0.4,0.2-1.1,0.6-1.8,1c-1.8,1-3.6,2.2-5.6,3.6
	c-2,1.4-4,2.9-5.8,4.4l-0.1,0.7c-0.5,3.7-1,6.5-1.5,8.5c1.5-1,3-1.9,4.5-2.9c1.6-1,3.2-1.9,4.8-2.9c4.7-2.7,8.1-4.5,10.2-5.4
	c2.1-0.9,3.3-1.1,3.5-0.6c0.1,0.3,0.1,0.8-0.1,1.5c-0.2,0.7-0.2,1.3-0.3,1.6c-4.1,2.6-8.1,5.4-12.2,8.4c-4.1,3-8.1,6.3-12.2,9.7
	c-0.6,2.2-1.5,4.8-2.6,7.9C38.9,61.6,38.3,63.6,38.2,64.3z"/>
<path class="st4" d="M38.2,64.3L36.5,65l-0.9-4l-0.8,0.5L33.9,63L32,64c-0.1,0.1-0.2,0.1-0.3,0.1c-0.1,0-0.2,0-0.3,0
	c-0.1-0.1-0.1-0.9-0.2-2.2c-0.3-7.2-1.2-14.2-2.6-21l-3.1-0.3l0-2.4l7.9-6.2c0.3-0.9,1.2-2.2,2.7-3.8c1.5-1.6,2.6-2.6,3.4-3.1
	c0.8-0.4,1.3-0.7,1.8-0.9c0.4-0.1,0.7-0.1,1,0l0.7,0.5c1.7-1.2,3.4-2.4,5-3.5c1.6-1.1,3.3-2.1,4.9-3c4.4-2.5,7.7-4.1,10-4.7
	c2.2-0.6,3.6-0.3,4,0.9c0.4,1.1,0.3,2.7-0.3,4.6c-0.6,1.9-1.7,4.1-3.2,6.6l-1.3,0.5c-0.1-0.5-0.1-1-0.2-1.3c0-0.4-0.1-0.7-0.2-0.9
	c-0.2-0.5-0.3-0.8-0.5-1.1c-0.2-0.2-0.3-0.5-0.6-0.7c-0.4,0.2-0.8,0.5-1.3,0.7c-0.4,0.2-1.1,0.6-1.8,1c-1.8,1-3.6,2.2-5.6,3.6
	c-2,1.4-4,2.9-5.8,4.4l-0.1,0.7c-0.5,3.7-1,6.5-1.5,8.5c1.5-1,3-1.9,4.5-2.9c1.6-1,3.2-1.9,4.8-2.9c4.7-2.7,8.1-4.5,10.2-5.4
	c2.1-0.9,3.3-1.1,3.5-0.6c0.1,0.3,0.1,0.8-0.1,1.5c-0.2,0.7-0.2,1.3-0.3,1.6c-4.1,2.6-8.1,5.4-12.2,8.4c-4.1,3-8.1,6.3-12.2,9.7
	c-0.6,2.2-1.5,4.8-2.6,7.9C38.9,61.6,38.3,63.6,38.2,64.3z"/>
<text transform="matrix(1 0 0 1.1062 256.6387 71.2175)" class="st1 st5 st6">S.A.S</text>
</svg>
